<svg xmlns="http://www.w3.org/2000/svg" width="192" height="65.618" viewBox="0 0 192 65.618">
  <g id="ReLIFE-inline-color-positive" transform="translate(-42.75 -33.92)">
    <path id="Tracé_490" data-name="Tracé 490" d="M149.48,66.25h13.49c6.346,0,10.184,3.572,10.184,8.55a8.136,8.136,0,0,1-6.117,7.98l4.94,10.066h-7.522l-4.6-9.46h-3.838v9.46H149.48Zm13.106,11.781c2.507,0,4.03-1.294,4.03-3.269,0-1.826-1.517-3.151-4.03-3.151h-6.575v6.42h6.575Z" transform="translate(-40.654 -12.315)" fill="#3b3b3c"/>
    <path id="Tracé_491" data-name="Tracé 491" d="M200.335,76.3c6.457,0,9.881,4.563,9.881,10.562v1.213H196.23a4.2,4.2,0,0,0,4.3,4.216,3.775,3.775,0,0,0,3.8-2.13h5.739c-.873,4.067-4.637,6.952-9.46,6.952-6.612,0-10.487-4.445-10.487-10.413s4.1-10.413,10.221-10.413Zm3.838,7.788a3.743,3.743,0,0,0-3.838-3.38,4.029,4.029,0,0,0-3.987,3.38Z" transform="translate(-56.134 -16.139)" fill="#3b3b3c"/>
    <path id="Tracé_492" data-name="Tracé 492" d="M228.05,66.25h6.538v20.9h12.425v5.7H228.05v-26.6Z" transform="translate(-70.582 -12.315)" fill="#3b3b3c"/>
    <path id="Tracé_493" data-name="Tracé 493" d="M263.11,66.25h6.538v26.6H263.11Z" transform="translate(-83.936 -12.315)" fill="#3b3b3c"/>
    <path id="Tracé_494" data-name="Tracé 494" d="M281.706,66.25H301.35v5.665H288.238v5.052h12.617v5.665H288.238V92.853H281.7v-26.6Z" transform="translate(-91.017 -12.315)" fill="#3b3b3c"/>
    <path id="Tracé_495" data-name="Tracé 495" d="M319.676,66.25h20.251v5.665H326.208v4.6h13.224v5.659H326.208v5.015H340.23v5.665H319.67v-26.6Z" transform="translate(-105.48 -12.315)" fill="#3b3b3c"/>
    <path id="Tracé_496" data-name="Tracé 496" d="M96.3,82.5V93.433l9.472,5.467V87.967Z" transform="translate(-20.397 -18.504)" fill="#f37021"/>
    <path id="Tracé_497" data-name="Tracé 497" d="M111.6,87.967l9.466-5.467V93.433L111.6,98.906Z" transform="translate(-26.225 -18.504)" fill="#fdb913"/>
    <path id="Tracé_498" data-name="Tracé 498" d="M96.3,79.133l9.472-5.473,9.466,5.473L105.772,84.6Z" transform="translate(-20.397 -15.137)" fill="#ffd100"/>
    <path id="Tracé_499" data-name="Tracé 499" d="M120.77,90.656v4.377l1.9-1.1-.006-4.377Z" transform="translate(-29.718 -21.194)" fill="#ffd100"/>
    <path id="Tracé_500" data-name="Tracé 500" d="M69.52,62.63V95.436l9.472,5.473V68.1Z" transform="translate(-10.197 -10.936)" fill="#8dc63f"/>
    <path id="Tracé_501" data-name="Tracé 501" d="M84.82,68.093l9.472-5.473V95.432L84.82,100.9Z" transform="translate(-16.025 -10.932)" fill="#e2de1c"/>
    <path id="Tracé_502" data-name="Tracé 502" d="M69.52,59.257l9.472-5.467,9.472,5.467-9.472,5.473Z" transform="translate(-10.197 -7.569)" fill="#ffe600"/>
    <path id="Tracé_503" data-name="Tracé 503" d="M94,74.316v4.377l1.894-1.1V73.22Z" transform="translate(-19.521 -14.97)" fill="#ffe600"/>
    <path id="Tracé_504" data-name="Tracé 504" d="M94,84.916v4.377l1.894-1.1V83.82Z" transform="translate(-19.521 -19.007)" fill="#ffe600"/>
    <path id="Tracé_505" data-name="Tracé 505" d="M87.88,99.05v4.377l1.894-1.1V97.96Z" transform="translate(-17.19 -24.393)" fill="#ffe600"/>
    <path id="Tracé_506" data-name="Tracé 506" d="M94,106.116v4.377l1.894-1.1V105.02Z" transform="translate(-19.521 -27.082)" fill="#ffe600"/>
    <path id="Tracé_507" data-name="Tracé 507" d="M42.75,42.75V97.435l9.472,5.467V48.217Z" transform="translate(0 -3.363)" fill="#289048"/>
    <path id="Tracé_508" data-name="Tracé 508" d="M58.05,48.217l9.466-5.467.006,54.685L58.05,102.9Z" transform="translate(-5.828 -3.363)" fill="#50b848"/>
    <path id="Tracé_509" data-name="Tracé 509" d="M42.75,39.387l9.472-5.467,9.466,5.467-9.466,5.467Z" fill="#8dc63f"/>
    <path id="Tracé_510" data-name="Tracé 510" d="M61.11,72.11v4.377L63,75.391V71.02Z" transform="translate(-6.993 -14.132)" fill="#8dc63f"/>
    <path id="Tracé_511" data-name="Tracé 511" d="M67.23,57.976v4.377l1.894-1.1V56.88Z" transform="translate(-9.325 -8.746)" fill="#8dc63f"/>
    <path id="Tracé_512" data-name="Tracé 512" d="M61.11,82.71v4.377L63,85.991V81.62Z" transform="translate(-6.993 -18.169)" fill="#8dc63f"/>
    <path id="Tracé_513" data-name="Tracé 513" d="M67.23,79.176v4.377l1.894-1.1V78.08Z" transform="translate(-9.325 -16.821)" fill="#8dc63f"/>
    <path id="Tracé_514" data-name="Tracé 514" d="M61.11,103.906v4.377l1.894-1.1V102.81Z" transform="translate(-6.993 -26.241)" fill="#8dc63f"/>
    <path id="Tracé_515" data-name="Tracé 515" d="M67.23,110.976v4.371l1.894-1.09V109.88Z" transform="translate(-9.325 -28.934)" fill="#8dc63f"/>
    <path id="Tracé_516" data-name="Tracé 516" d="M61.11,125.106v4.377l1.894-1.1V124.01Z" transform="translate(-6.993 -34.316)" fill="#8dc63f"/>
  </g>
</svg>
